Coordinates
version=1
nRows=9
nColumns=42
inDegrees=yes

Units are S.I. units (second, meters, Newtons, ...)
If the header above contains a line with 'inDegrees', this indicates whether rotational values are in degrees (yes) or radians (no).

endheader
time	pelvis_tilt	pelvis_list	pelvis_rotation	pelvis_tx	pelvis_ty	pelvis_tz	hip_flexion_r	hip_adduction_r	hip_rotation_r	knee_angle_r	knee_adduction_r	knee_angle_r_beta	ankle_angle_r	subtalar_angle_r	mtp_angle_r	hip_flexion_l	hip_adduction_l	hip_rotation_l	knee_angle_l	knee_adduction_l	knee_angle_l_beta	ankle_angle_l	subtalar_angle_l	mtp_angle_l	lumbar_extension	lumbar_bending	lumbar_rotation	arm_flex_r	arm_add_r	arm_rot_r	elbow_flex_r	pro_sup_r	wrist_flex_r	wrist_dev_r	arm_flex_l	arm_add_l	arm_rot_l	elbow_flex_l	pro_sup_l	wrist_flex_l	wrist_dev_l
      0.00000000	     17.41769629	      1.37050738	     -0.93338377	     -1.11277356	      0.89896009	     -0.32976276	     -9.79684943	     -2.58627697	    -15.77735215	     59.18785832	    -13.73379966	      1.03302300	      2.41878282	    -16.93315073	     -9.53908166	    -11.07944845	      3.77699113	    -15.01013634	     19.09023330	      0.05669281	      0.33318743	     18.74982044	     -0.53701626	     -9.53908166	    -30.74357235	     -4.30165483	     -2.14772367	     -2.93314870	     -2.79768005	    -20.34547040	     37.24443169	     90.00000001	      0.00000000	      0.00000000	     -0.31420705	     -4.29558520	    -25.43906406	     35.50642255	     90.00000001	      0.00000000	      0.00000000
      0.01000000	     17.29362428	      0.94490845	     -0.80371477	     -1.10286571	      0.89989186	     -0.33072378	     -7.91907585	     -2.10993557	    -15.85133765	     59.10653759	    -13.89817783	      1.03160369	      3.61940962	    -17.01192330	     -9.50818237	    -12.08338829	      3.38065091	    -15.17897780	     18.25132673	      0.16232935	      0.31854574	     18.98291736	     -0.31745656	     -9.50818237	    -30.71547497	     -3.74298927	     -2.44066475	     -3.07318655	     -2.87951848	    -20.44100635	     37.14877829	     90.00000001	      0.00000000	      0.00000000	      0.08890551	     -4.22728380	    -25.13263173	     35.87822404	     90.00000001	      0.00000000	      0.00000000
      0.02000000	     17.18509590	      0.55798768	     -0.64402366	     -1.09286585	      0.90064831	     -0.33155077	     -6.17410594	     -1.59338313	    -15.74462667	     58.69918310	    -13.92956782	      1.02449401	      4.96117482	    -17.08591486	     -9.47352761	    -13.19524370	      2.97200489	    -15.10574896	     17.28474472	      0.45444952	      0.30167571	     19.23166132	      0.07803481	     -9.47352761	    -30.68072661	     -3.23299067	     -2.73016334	     -3.24336179	     -2.92619865	    -20.70320833	     36.99322956	     90.00000001	      0.00000000	      0.00000000	      0.46599362	     -4.24550034	    -24.60227202	     36.31988606	     90.00000001	      0.00000000	      0.00000000
      0.03000000	     17.34380962	      0.18892177	     -0.36456201	     -1.08264873	      0.90159664	     -0.33232839	     -4.94393962	     -1.08637670	    -15.41608562	     57.82678139	    -13.54090996	      1.00926773	      6.02768161	    -17.03148255	     -9.38889444	    -14.73011429	      2.54966667	    -14.84586047	     16.05822960	      0.79133711	      0.28026898	     19.39784081	      0.65145866	     -9.38889444	    -30.90916049	     -2.71298414	     -3.10871376	     -3.31060025	     -2.78141199	    -21.65388674	     36.80495988	     90.00000001	      0.00000000	      0.00000000	      0.66130184	     -4.48870686	    -23.04708997	     36.97718095	     90.00000001	      0.00000000	      0.00000000
      0.04000000	     17.17041047	     -0.07317903	     -0.15712384	     -1.07279683	      0.90186231	     -0.33311882	     -3.28909752	     -0.73259192	    -15.21149946	     56.85966484	    -13.27828258	      0.99238836	      6.83655132	    -16.97138570	     -9.32725237	    -15.75019009	      2.28754128	    -14.84856710	     15.06610095	      0.93214331	      0.26295307	     19.57630483	      1.29091866	     -9.32725237	    -30.82412552	     -2.31250654	     -3.50709496	     -3.37761180	     -2.72276822	    -22.15643515	     36.62893271	     90.00000001	      0.00000000	      0.00000000	      0.98303979	     -4.62932911	    -22.19544367	     37.52606816	     90.00000001	      0.00000000	      0.00000000
      0.05000000	     16.80357493	     -0.16641591	      0.06765582	     -1.06300906	      0.90161235	     -0.33404306	     -1.46718118	     -0.61116307	    -15.04624128	     55.70214269	    -12.96012855	      0.97218579	      7.34001404	    -16.67805411	     -9.30000299	    -16.38395957	      2.20108060	    -15.18934377	     14.41015964	      0.90578980	      0.25150473	     19.69700055	      1.67693583	     -9.30000299	    -30.52626196	     -2.06621162	     -4.03261604	     -3.53836139	     -2.70967347	    -22.32183585	     36.58752599	     90.00000001	      0.00000000	      0.00000000	      1.35717248	     -4.68687689	    -21.84521533	     37.95108420	     90.00000001	      0.00000000	      0.00000000
      0.06000000	     16.86119065	     -0.39991002	      0.24585408	     -1.05293042	      0.90176943	     -0.33455208	     -0.31300988	     -0.26000719	    -14.46833696	     54.18475656	    -12.31003548	      0.94570241	      7.82781930	    -16.68405929	     -9.24483438	    -17.89434098	      1.92733375	    -15.13110534	     12.96645765	      1.20907959	      0.22630738	     19.88871979	      3.26409480	     -9.24483438	    -30.66104084	     -1.74414207	     -4.36653400	     -3.49582352	     -2.57293159	    -23.15185395	     36.23575902	     90.00000001	      0.00000000	      0.00000000	      1.66020703	     -4.91608595	    -20.69466123	     38.61755271	     90.00000001	      0.00000000	      0.00000000
      0.07000000	     16.80601347	     -0.62516721	      0.47985691	     -1.04289570	      0.90148367	     -0.33500879	      0.89303764	      0.08618452	    -14.14352825	     52.38547812	    -11.77938610	      0.91429907	      7.85830096	    -16.49373878	     -9.12356899	    -19.00093432	      1.56124314	    -15.85477765	     12.11573418	      1.37158423	      0.21145945	     20.20632006	      4.97149371	     -9.12356899	    -30.67304861	     -1.41083923	     -4.70179074	     -3.48496310	     -2.33163644	    -24.42452376	     36.05198872	     90.00000001	      0.00000000	      0.00000000	      1.99535262	     -5.18267564	    -19.40940760	     39.23323635	     90.00000001	      0.00000000	      0.00000000
      0.08000000	     16.55514958	     -0.58468569	      0.60241708	     -1.03301512	      0.90072881	     -0.33570514	      2.32763916	      0.04523938	    -13.67568569	     50.58688334	    -11.13508948	      0.88290767	      8.01140150	    -16.09817534	     -9.08376791	    -19.97334329	      1.64647516	    -16.27960953	     11.02432996	      1.42682853	      0.19241086	     20.35991345	      6.15549577	     -9.08376791	    -30.49123691	     -1.36525746	     -5.13496562	     -3.51111419	     -2.31263237	    -24.68232172	     35.74797227	     90.00000001	      0.00000000	      0.00000000	      2.44715027	     -5.25635959	    -19.05328014	     39.69904639	     90.00000001	      0.00000000	      0.00000000
